# xmcd CD database file
#
# Track frame offsets:
#	150
#	14002
#	27216
#	40793
#	53646
#	67256
#	86585
#	98951
#	110600
#	123547
#	134894
#	147199
#	163977
#	178060
#
# Disc length: 2666 seconds
#
# Revision: 0
# Processed by: cddbd v1.5.2PL0 Copyright (c) Steve Scherf et al.
# Submitted via: CDex 1.51
#
DISCID=d30a680e
DTITLE=Johnny Pacheco - Anthology [CDOne)
DYEAR=2012
DGENRE=Salsa
TTITLE0=La Melodia
TTITLE1=El Güiro de Macorina
TTITLE2=El Agua del Clavelito
TTITLE3=Caramelo
TTITLE4=Pare Cochero
TTITLE5=Soy Guapo de Verdad
TTITLE6=Alto Songo
TTITLE7=Acuyuye
TTITLE8=Recuerdos de Arcaño
TTITLE9=Fania
TTITLE10=Cañonazo
TTITLE11=Dakar Punto Final
TTITLE12=El Mundo
TTITLE13=Dos Gardenias
EXTD=YEAR: 2012
EXTT0=
EXTT1=
EXTT2=
EXTT3=
EXTT4=
EXTT5=
EXTT6=
EXTT7=
EXTT8=
EXTT9=
EXTT10=
EXTT11=
EXTT12=
EXTT13=
PLAYORDER=
